<svg width="366" height="325" viewBox="0 0 366 325" fill="none" xmlns="http://www.w3.org/2000/svg">
<path d="M39.4696 323.941C42.4027 310.189 34.1085 295.785 25.3578 284.772C-10.8105 239.212 -2.36086 191.253 14.2567 170.177C18.2096 165.166 23.056 160.902 26.902 155.803C43.1311 134.242 38.0225 103.551 47.5891 78.3191C56.2329 55.5537 77.7552 38.1785 101.851 34.517C115.205 32.4871 128.987 34.3907 142.244 31.7976C161.047 28.1264 174.557 18.6181 192.311 11.4213C201.431 7.72099 213.61 4.6228 223.001 7.58502C250.332 16.2192 262.423 47.1914 287.966 61.2742C302.03 69.0245 312.48 69.1216 322.668 81.5241C336.022 97.7824 334.556 123.889 343.501 142.934C348.095 152.705 352.679 158.192 356.884 168.138C364.343 185.785 355.69 213.27 344.287 230.17C326.164 257.014 371.142 303.885 328.738 324.873C326.932 325.767 306.973 320.252 304.982 319.932C277.875 315.59 268.651 318.045 241.195 317.938C207.806 316.443 174.275 321.756 140.894 322.776C108.29 323.766 75.6865 320.678 43.0729 320.862" fill="#E8DBFF"/>
<path d="M285.801 29.3599C292.91 34.7501 300.913 38.062 309.227 41.335C313.374 42.9958 317.618 44.6663 321.872 46.6767C326.106 48.6969 330.37 51.0569 334.43 54.0483C338.47 57.0397 342.472 60.2447 345.958 64.0325C349.455 67.8105 352.126 72.317 353.728 77.1925C355.34 82.0583 356.098 87.1864 355.904 92.2659C355.661 97.3356 354.563 102.386 351.912 106.873L350.164 106.824C347.755 102.367 345.832 98.4428 343.792 94.7425C341.792 91.0518 339.791 87.6137 337.751 84.3116C335.702 81.0094 333.857 77.7461 332.031 74.3177C330.205 70.9087 328.097 67.4997 325.33 64.6832C319.832 59.0112 312.509 54.2134 305.07 49.0368C301.36 46.4145 297.582 43.7437 294.046 40.7232C290.511 37.7027 287.199 34.3519 284.538 30.5836L285.801 29.3793V29.3599Z" fill="#E8DBFF"/>
<path d="M9.34229 133.154C10.9739 131.6 12.4696 129.94 13.8099 128.182C15.1308 126.404 16.2768 124.511 17.2869 122.558C19.2973 118.644 20.7153 114.449 21.7545 110.127C23.8718 101.473 24.7653 92.4311 26.3678 83.1268C27.1933 78.4844 28.2228 73.7545 29.7768 69.0053C30.1458 67.8301 30.612 66.6064 31.0297 65.4797C31.457 64.3628 31.894 63.2459 32.3505 62.1387C33.2635 59.9146 34.225 57.71 35.2642 55.5247C39.4599 46.8226 44.6656 38.4118 51.3379 30.8363C54.6886 27.0777 58.3501 23.455 62.439 20.2014C66.5084 16.9284 71.0537 14.0341 75.9778 11.7615C78.4447 10.6446 81.0184 9.69279 83.6213 8.93524C86.2145 8.22624 88.827 7.64351 91.3911 7.28416C96.5288 6.53632 101.511 6.41977 106.231 6.54603C108.611 6.62373 110.913 6.74028 113.185 6.8374L119.858 7.20646C122.053 7.33272 124.131 7.39099 126.239 7.43956C127.287 7.45898 128.336 7.43956 129.385 7.42013C130.434 7.42013 131.473 7.37157 132.513 7.3133C136.679 7.08992 140.787 6.54603 144.828 5.45826C148.878 4.3705 152.811 2.66115 156.657 0L158.211 1.17518C156.511 5.86618 153.112 10.0424 149.062 13.3057C145.003 16.5787 140.302 18.9874 135.504 20.755C133.095 21.6388 130.648 22.3769 128.191 22.9597C125.733 23.591 123.228 23.9892 120.829 24.3874C118.43 24.7564 116.041 25.0284 113.719 25.3003L106.882 25.9802C102.414 26.3978 98.1993 26.7766 94.227 27.3107C92.2263 27.5633 90.3324 27.8935 88.4483 28.2431C86.5932 28.6122 84.7771 29.0589 82.9512 29.5931C75.6864 31.7298 68.5382 35.8089 62.4972 41.5586C56.398 47.2402 51.1145 54.1553 46.5595 61.6143C45.394 63.4693 44.2965 65.3729 43.2185 67.2959C42.6843 68.2574 42.1599 69.2287 41.6548 70.2096C41.1595 71.1905 40.6933 72.0743 40.2563 73.0456C38.4789 76.8819 37.0512 81.0387 35.7595 85.3315C33.0887 93.9074 31.0588 103.085 27.5333 111.972C25.7754 116.401 23.5998 120.752 20.8027 124.685C19.3847 126.638 17.8308 128.483 16.1214 130.173C14.4024 131.843 12.5376 133.339 10.5757 134.67L9.38113 133.145L9.34229 133.154Z" fill="#E8DBFF"/>
<path d="M274.379 239.197V317.307H269.09L245.29 318.115L240.571 273.409C238.375 284.728 236.51 318.226 236.51 318.226L230.397 317.993L207.51 318.226L215.62 253.786L216.472 248.375L223.283 246.771L239.382 242.97V241.974L266.683 228.935L274.036 238.738L274.373 239.186L274.379 239.197Z" fill="#312A3D"/>
<path d="M239.077 250.477C234.856 252.679 220.018 253.576 215.62 253.791L216.472 248.381L223.282 246.776L239.077 250.472V250.477Z" fill="black"/>
<path d="M240.571 273.414C238.375 284.733 236.782 318.934 236.782 318.934L229.944 318.563L236.654 271.81L237.595 257.1L240.571 273.42V273.414Z" fill="black"/>
<path d="M277.184 171.355L275.657 202.43L276.597 235.364C276.597 235.364 272.686 234.014 268.775 234.014C268.509 234.014 268.232 234.03 267.939 234.063C264.006 234.462 258.379 237.388 258.379 237.388C258.379 237.388 241.915 250.351 239.077 250.478C236.245 250.616 212.351 251.153 212.351 251.153L218.619 221.627L222.884 201.528V151.815L230.657 148.999L240.372 145.48L241.517 145.065L243.392 145.104L244.067 145.121L260.105 145.442L278.229 150.194L277.195 171.355H277.184Z" fill="url(#paint0_linear_5283_1957)"/>
<g style="mix-blend-mode:multiply" opacity="0.2">
<path d="M247.193 173.838L243.221 174.331L232.864 187.99L218.613 221.626L222.878 201.528V177.291L231.116 163.565H232.471L230.651 148.998L230.507 147.875C230.43 147.245 230.878 146.664 231.514 146.581L240.366 145.48L243.387 145.104L243.608 145.076C243.763 145.054 243.923 145.076 244.062 145.12C244.493 145.237 244.842 145.607 244.897 146.083L248.2 172.549C248.277 173.18 247.829 173.755 247.193 173.844V173.838Z" fill="#312A3D"/>
</g>
<path d="M302.821 209.113C302.821 209.5 302.793 209.887 302.738 210.275C302.289 213.589 300.093 216.604 300.093 216.604C300.093 216.604 281.737 236.985 272.155 243.867C272.155 243.867 269.754 243.037 267.104 239.369C266.241 238.18 265.356 236.691 264.515 234.833C264.515 234.833 272.841 225.223 276.21 221.455C279.579 217.677 285.598 209.854 285.598 209.854L281.333 201.926C281.333 201.926 287.568 190.287 298.284 193.185C298.284 193.185 302.826 208.421 302.826 209.113H302.821Z" fill="#DC8B7B"/>
<path opacity="0.5" d="M302.737 210.275C302.289 213.589 300.093 216.604 300.093 216.604C300.093 216.604 281.737 236.985 272.155 243.867C272.155 243.867 269.754 243.038 267.104 239.37L272.658 240.399L298.289 216.206C298.289 216.206 299.589 212.765 300.906 211.448C301.338 211.017 302.018 210.618 302.748 210.275H302.737Z" fill="#A5685C"/>
<path d="M278.224 150.193C278.224 150.193 284.431 156.81 286.998 161.125C289.565 165.44 298.284 193.179 298.284 193.179C298.284 193.179 286.539 195.337 281.333 201.92L270.335 181.661C270.335 181.661 267.984 167.587 269.107 163.753C270.241 159.875 278.229 150.188 278.229 150.188L278.224 150.193Z" fill="url(#paint1_linear_5283_1957)"/>
<path d="M224.339 157.74C224.339 157.74 225.9 151.81 226.054 149.99C226.209 148.175 226.392 147.6 226.392 147.6C226.392 147.6 227.438 149.857 227.642 150.836C227.847 151.815 226.945 156.396 226.945 156.396L224.339 157.735V157.74Z" fill="#DC8B7B"/>
<path d="M217.889 190.784C217.889 190.784 212.318 209.555 211.194 211.713L211.134 209.854C210.022 211.978 206.376 217.477 204.451 216.67C202.525 215.856 197.364 210.999 197.469 209.887C197.568 208.775 197.701 204.93 198.31 202.7C198.918 200.471 205.192 184.073 205.192 184.073L210.188 185.224L212.76 187.088L217.883 190.789L217.889 190.784Z" fill="#DC8B7B"/>
<path d="M222.878 151.814C222.878 151.814 211.692 168.411 205.197 184.073C205.197 184.073 212.892 187.852 217.882 192.709L227.735 168.245L222.878 151.814Z" fill="url(#paint2_linear_5283_1957)"/>
<path d="M238.689 140.226L226.595 141.735C225.962 141.814 225.512 142.392 225.591 143.025L228.892 169.491C228.971 170.125 229.549 170.575 230.183 170.496L242.277 168.987C242.911 168.908 243.36 168.33 243.281 167.697L239.98 141.231C239.901 140.597 239.323 140.147 238.689 140.226Z" fill="url(#paint3_linear_5283_1957)"/>
<path d="M245.079 155.454C244.471 155.924 243.055 155.316 242.651 155.388C242.241 155.454 238.867 155.454 238.468 155.725C238.059 155.991 232.936 159.233 232.936 159.233C232.936 159.233 238.264 158.419 238.939 158.419C239.614 158.419 244.947 159.908 244.947 159.908C244.947 159.908 243.796 160.986 243.326 160.986C242.855 160.986 239.818 160.721 239.005 160.92C238.192 161.125 233.069 163.078 233.069 163.078C233.069 163.078 236.776 163.957 236.98 164.024C237.185 164.09 241.434 163.957 241.434 163.957C241.434 163.957 243.187 164.427 243.116 164.632C243.044 164.837 242.784 165.512 242.109 165.777C241.434 166.048 237.987 165.578 237.251 165.777C236.51 165.982 233.81 167.465 233.81 167.465L231.481 171.26L229.96 174.955C229.96 174.955 224.261 188.482 222.037 193.61C221.744 194.285 221.512 194.811 221.357 195.148C220.062 197.981 213.667 208.332 213.468 208.658C212.356 210.788 206.381 217.471 204.456 216.658C203.709 216.342 202.47 215.419 201.247 214.334C199.316 212.636 197.413 210.55 197.474 209.875C197.474 209.875 198.686 203.159 202.331 198.268C205.302 194.274 212.113 186.734 215.736 182.28C216.549 181.273 217.208 180.427 217.612 179.813C219.841 176.471 222.469 171.514 222.674 171.254C222.878 171.005 223.282 162.198 223.681 160.372C224.09 158.552 224.898 155.62 224.898 155.62C224.898 155.62 225.451 155.2 226.192 154.68C226.928 154.154 227.857 153.534 228.599 153.13C228.599 153.13 233.937 149.64 234.142 149.64C234.347 149.64 241.766 149.374 241.766 149.374C241.766 149.374 241.362 150.115 240.62 150.453C239.879 150.79 235.625 151.399 234.817 151.941C234.004 152.478 231.581 154.641 231.581 154.641L236.034 153.357L241.367 152.953L244.604 153.96C244.604 153.96 245.682 154.973 245.074 155.443L245.079 155.454Z" fill="#DC8B7B"/>
<path opacity="0.5" d="M226.795 179.15C226.795 179.15 224.616 185.993 222.043 193.617C221.75 194.292 221.517 194.817 221.363 195.155C220.068 197.987 213.673 208.338 213.473 208.665C212.361 210.794 206.387 217.477 204.461 216.664C203.715 216.349 202.475 215.425 201.253 214.341C201.026 213.085 200.854 210.955 201.795 209.411C203.211 207.082 209.186 204.554 211.814 201.412C214.447 198.275 226.801 179.139 226.801 179.139L226.795 179.15Z" fill="#A5685C"/>
<path d="M73.5355 57.8162L174.777 63.3983C177.155 63.5311 179.014 65.495 179.014 67.8739V261.537C179.014 263.878 177.216 265.825 174.882 266.008L73.6406 273.991C71.0349 274.195 68.8054 272.137 68.8054 269.521V62.2919C68.8054 59.7193 70.9685 57.6724 73.5355 57.8162Z" fill="url(#paint4_linear_5283_1957)"/>
<path d="M73.6409 273.992L174.882 266.008C177.217 265.826 179.014 263.879 179.014 261.538V212.124C174.401 209.861 169.339 208.312 164.57 206.708C154.125 203.195 141.865 196.965 132.106 191.123C122.347 185.281 115.797 165.238 106.176 153.736C100.135 146.511 81.6848 142.34 68.8057 140.237V269.521C68.8057 272.138 71.0352 274.196 73.6409 273.992Z" fill="url(#paint5_linear_5283_1957)"/>
<path style="mix-blend-mode:multiply" d="M179.008 90.7047L156.436 89.46C156.436 89.46 156.436 89.471 156.436 89.4766V112.524L147.933 124.529L162.915 116.734L179.014 118.532V90.7047H179.008Z" fill="url(#paint6_linear_5283_1957)"/>
<g style="mix-blend-mode:overlay">
<path d="M171.767 250.782L140.376 251.927V247.474L171.767 246.533V250.782Z" fill="white"/>
<path d="M171.767 257.875L132.897 260.298V255.136L171.767 253.626V257.875Z" fill="white"/>
</g>
<path d="M146.461 225.914V221.565L171.766 221.704V226.052L146.461 225.914Z" fill="white"/>
<path d="M171.766 228.912L159.8 229.106V233.46L171.766 233.266V228.912Z" fill="white"/>
<path d="M216.555 83.3084V111.158C216.555 113.083 214.989 114.643 213.07 114.643H162.327L145.111 123.6L154.886 109.803V83.3084C154.886 81.3832 156.441 79.8286 158.366 79.8286H213.07C214.995 79.8286 216.555 81.3832 216.555 83.3084Z" fill="url(#paint7_linear_5283_1957)"/>
<path style="mix-blend-mode:overlay" opacity="0.91" d="M213.069 79.8286C213.069 79.8286 159.423 81.2449 157.558 82.1798C155.694 83.1093 154.88 109.803 154.88 109.803V83.3084C154.88 81.3832 156.435 79.8286 158.36 79.8286H213.064H213.069Z" fill="url(#paint8_linear_5283_1957)"/>
<path d="M169.895 92.6916C165.215 87.4027 161.116 91.646 161.813 95.8505C162.51 100.05 169.895 105.15 169.895 105.15C169.895 105.15 177.281 100.05 177.978 95.8505C178.675 91.6515 174.576 87.4082 169.895 92.6916Z" fill="url(#paint9_linear_5283_1957)"/>
<path d="M169.602 100.105C169.486 100.105 169.381 100.05 169.32 99.9504L167.605 97.3004L167.041 98.1745C166.98 98.2685 166.869 98.3294 166.759 98.3294H160.286C160.098 98.3294 159.948 98.18 159.948 97.9919C159.948 97.8038 160.098 97.6545 160.286 97.6545H166.571L167.318 96.4982C167.378 96.4042 167.489 96.3433 167.6 96.3433C167.716 96.3433 167.821 96.3986 167.882 96.4982L169.597 99.1482L171.804 95.7458C171.931 95.5522 172.247 95.5522 172.374 95.7458L173.536 97.5383H178.863C179.052 97.5383 179.201 97.6876 179.201 97.8757C179.201 98.0638 179.052 98.2132 178.863 98.2132H173.353C173.237 98.2132 173.132 98.1579 173.071 98.0583L172.092 96.5535L169.884 99.9559C169.824 100.05 169.713 100.111 169.602 100.111V100.105Z" fill="white"/>
<path d="M208.03 90.9814H185.524V94.8596H208.03V90.9814Z" fill="url(#paint10_linear_5283_1957)"/>
<path d="M201.43 95.9111H185.524V99.7893H201.43V95.9111Z" fill="url(#paint11_linear_5283_1957)"/>
<path d="M206.16 100.84H185.524V104.718H206.16V100.84Z" fill="url(#paint12_linear_5283_1957)"/>
<path d="M65.0321 80.5656C68.4358 80.5656 71.1951 77.3531 71.1951 73.3902C71.1951 69.4274 68.4358 66.2148 65.0321 66.2148C61.6284 66.2148 58.8691 69.4274 58.8691 73.3902C58.8691 77.3531 61.6284 80.5656 65.0321 80.5656Z" fill="url(#paint13_linear_5283_1957)"/>
<path d="M103.426 72.3335V76.4772L79.7642 75.3099V70.707L103.426 72.3335Z" fill="white"/>
<path d="M103.426 84.7649V88.9086L79.7642 89.1244V84.5215L103.426 84.7649Z" fill="white"/>
<path d="M63.2728 92.2389C62.9409 92.2444 62.6089 92.1227 62.3489 91.8682L58.2052 87.7301C57.6741 87.2045 57.6741 86.3415 58.2052 85.8159C58.7308 85.2903 59.5828 85.2959 60.1028 85.827L63.2728 89.0357L70.1826 81.9212C70.6639 81.4288 71.4329 81.4454 71.9087 81.9543C72.3789 82.4633 72.3789 83.271 71.9087 83.7689L64.1912 91.835C63.9367 92.1006 63.6103 92.2333 63.2783 92.2389H63.2728Z" fill="white"/>
<path d="M63.2728 77.4618C62.9409 77.4508 62.6089 77.3069 62.3489 77.0358L58.2052 72.6543C57.6741 72.0955 57.6741 71.238 58.2052 70.7401C58.7308 70.2477 59.5828 70.303 60.1028 70.8618L63.2728 74.2586L70.1826 67.548C70.6639 67.0832 71.4329 67.1441 71.9087 67.6863C72.3789 68.2229 72.3789 69.0306 71.9087 69.5009L64.1912 77.1133C63.9367 77.3622 63.6103 77.4784 63.2783 77.4674L63.2728 77.4618Z" fill="url(#paint14_linear_5283_1957)"/>
<path d="M103.426 97.4219V101.566L79.7642 103.198V98.5892L103.426 97.4219Z" fill="white"/>
<path d="M63.2728 107.292C62.9409 107.32 62.6089 107.215 62.3489 106.977L58.2052 103.088C57.6741 102.59 57.6741 101.732 58.2052 101.173C58.7308 100.615 59.5828 100.57 60.1028 101.068L63.2728 104.089L70.1826 96.565C70.6639 96.045 71.4329 96.0118 71.9087 96.4986C72.3789 96.9799 72.3789 97.7877 71.9087 98.3132L64.1912 106.838C63.9367 107.115 63.6103 107.276 63.2783 107.298L63.2728 107.292Z" fill="white"/>
<path d="M167.479 135.659C167.479 135.659 162.085 133.867 158.024 133.374C153.764 132.86 147.413 133.374 147.413 133.374C147.413 137.324 144.503 140.422 140.515 140.566V159.315C140.515 164.565 144.797 174.839 158.024 175.409C169.504 172.133 172.596 162.856 172.596 158.491V142.89C169.725 142.303 167.484 139.183 167.484 135.665L167.479 135.659Z" fill="url(#paint15_linear_5283_1957)"/>
<path d="M166.079 154.393C166.079 159.864 162.168 164.539 157.078 164.849C151.673 165.175 147.031 160.5 147.031 154.393C147.031 148.285 151.668 143.616 157.078 143.936C162.168 144.241 166.079 148.916 166.079 154.393Z" fill="url(#paint16_linear_5283_1957)"/>
<path d="M157.444 160.233C157.018 160.283 156.592 160.156 156.26 159.83L150.744 154.358C150.014 153.633 150.014 152.383 150.744 151.581C151.464 150.79 152.614 150.746 153.311 151.47L157.439 155.758L165.809 145.689C166.362 145.025 167.242 145.036 167.778 145.706C168.31 146.364 168.31 147.426 167.778 148.084L158.6 159.553C158.285 159.951 157.865 160.178 157.444 160.233Z" fill="url(#paint17_linear_5283_1957)"/>
<path d="M242.956 136.454C242.956 136.454 243.819 143.346 241.496 146.463C241.496 146.463 244.015 154.345 251.035 154.345C258.525 154.345 260.711 146.258 260.711 146.258C260.711 146.258 259.191 140.886 259.191 136.582C259.191 136.582 242.854 136.548 242.956 136.445V136.454Z" fill="#DC8B7B"/>
<path d="M267.56 111.072H264.904C265.501 106.358 265.954 102.754 265.954 102.754C265.954 102.754 262.478 95.4014 251.743 95.4014C241.009 95.4014 237.328 102.558 237.328 102.558L238.054 111.072H235.235C235.235 111.072 233.229 111.867 233.229 114.984C233.229 118.101 235.5 122.952 238.908 121.013L239.924 132.978C239.924 132.978 241.717 140.331 251.556 140.331C261.394 140.331 262.188 133.319 262.188 132.926C262.188 132.756 262.88 127.179 263.674 120.876C263.708 120.902 263.742 120.928 263.785 120.953C267.261 123.071 269.575 118.101 269.575 114.992C269.575 111.884 267.568 111.081 267.568 111.081L267.56 111.072Z" fill="#DC8B7B"/>
<path d="M234.741 114.088C234.459 115.019 234.988 118.264 237.627 116.675C237.627 116.675 239.216 115.215 238.353 113.789C237.49 112.363 235.185 112.593 234.741 114.088Z" fill="#A5685C"/>
<path d="M268.029 114.088C268.311 115.019 267.781 118.264 265.142 116.675C265.142 116.675 263.554 115.215 264.417 113.789C265.279 112.363 267.585 112.593 268.029 114.088Z" fill="#A5685C"/>
<path d="M268.78 93.3684C267.892 92.9157 266.722 93.1207 265.774 93.1378C264.954 93.1463 263.861 93.2232 263.255 92.5144C262.879 92.0788 262.777 91.3358 262.529 90.8149C261 87.6294 257.755 88.3126 254.775 89.5253C253.229 89.8328 251.666 88.4322 250.488 87.5867C248.993 86.5021 247.558 85.3407 246.098 84.2049C244.159 82.7018 242.101 81.7112 239.608 81.7282C237.635 81.7453 235.628 82.3687 234.372 83.9743C234.159 84.2476 233.988 84.5294 233.852 84.8198C233.587 85.1955 233.407 85.614 233.339 86.0581C232.878 89.3118 232.588 92.651 234.765 95.4009C235.124 95.8621 235.534 96.2635 235.978 96.6307C235.363 96.4343 234.782 96.1268 234.27 95.7596C233.032 94.88 232.477 93.71 232.024 92.3094C231.964 92.113 231.623 92.0703 231.58 92.3094C231.298 94.026 232.306 95.8108 233.638 96.8356C234.244 97.3053 235.201 97.8604 236.157 98.1167C235.56 98.9023 235.329 99.9528 235.688 101.191C235.858 101.78 236.115 101.891 236.2 102.575C236.337 103.659 236.132 103.061 236.021 103.787C235.952 104.24 235.833 104.607 235.987 105.068C236.217 105.777 236.926 106.324 237.293 106.956C237.712 110.201 238.198 113.455 238.813 116.64C238.873 116.973 239.386 116.888 239.394 116.563C239.428 113.583 239.24 110.542 238.899 107.536C239.633 106.674 240.436 105.683 240.359 104.59C240.308 103.839 239.992 103.061 239.795 102.301C241.666 104.462 244.45 105.811 247.533 105.965C252.307 106.196 257.2 102.686 260.189 98.8853C259.566 100.354 258.823 101.772 257.969 103.138C257.96 103.155 257.96 103.164 257.952 103.181C257.935 103.198 257.926 103.207 257.909 103.224C257.849 103.283 257.909 103.411 258.003 103.377C258.003 103.377 258.003 103.377 258.011 103.377C258.011 103.48 258.131 103.574 258.242 103.514C259.967 102.66 261.504 101.319 262.811 99.9101C262.845 100.619 262.845 101.319 262.802 102.037C262.743 103.044 262.418 104.197 262.546 105.188C262.674 106.213 263.58 106.665 264.092 107.468C263.631 110.474 263.195 113.506 263.246 116.495C263.246 116.802 263.691 116.862 263.776 116.563C264.664 113.54 265.202 110.329 265.621 107.126C266.227 106.264 267.346 105.811 267.645 104.735C267.901 103.796 267.32 103.642 267.183 102.873C266.808 100.764 268.499 100.781 269.652 99.8247C270.19 99.3806 270.488 98.7828 270.608 98.0996C270.864 96.6221 270.232 94.0857 268.78 93.3513V93.3684Z" fill="black"/>
<path d="M243.127 137.648C243.127 137.648 249.685 143.78 259.267 138.016C259.267 138.016 257.38 143.285 251.479 143.285C245.578 143.285 243.127 137.648 243.127 137.648Z" fill="#A5685C"/>
<path d="M237.661 112.738C236.516 112.277 235.355 112.644 234.843 113.737C234.697 114.044 234.749 114.292 235.013 114.155C235.825 113.737 236.388 113.148 237.379 113.541C237.618 113.634 237.806 113.763 237.977 113.916C238.387 114.531 238.267 115.044 237.977 115.539C237.866 115.385 237.729 115.257 237.575 115.146C237.336 114.975 236.935 114.728 236.645 114.856C236.568 114.89 236.559 114.975 236.568 115.052C236.602 115.283 236.918 115.436 237.072 115.599C237.259 115.787 237.353 115.992 237.388 116.248C237.388 116.273 237.396 116.308 237.413 116.333C237.14 116.7 236.875 117.076 236.773 117.495C236.576 118.297 236.952 118.741 237.704 119.134C238.165 119.373 238.498 119.066 238.037 118.818C236.465 117.981 238.677 116.419 238.925 115.462C238.942 115.394 238.95 115.325 238.959 115.266C239.027 115.325 239.155 115.317 239.164 115.214C239.318 114.173 238.609 113.139 237.652 112.746L237.661 112.738Z" fill="black"/>
<path d="M268.012 113.823C267.449 112.798 266.33 112.311 265.211 112.695C264.229 113.037 263.307 114.079 263.392 115.172C263.409 115.394 263.648 115.539 263.836 115.471C264.092 116.427 266.304 117.965 264.716 118.81C264.255 119.058 264.494 119.331 264.989 119.16C265.92 118.844 266.168 118.298 265.98 117.495C265.877 117.076 265.613 116.701 265.339 116.334C265.348 116.308 265.365 116.282 265.365 116.248C265.399 115.992 265.501 115.778 265.689 115.599C265.843 115.437 266.159 115.283 266.193 115.052C266.202 114.984 266.193 114.89 266.116 114.856C265.826 114.728 265.416 114.984 265.186 115.146C265.032 115.257 264.887 115.394 264.776 115.548C264.511 115.112 264.383 114.651 264.665 114.113C264.844 113.883 265.066 113.686 265.39 113.549C266.321 113.14 267.013 113.643 267.85 114.002C267.961 114.053 268.089 113.951 268.021 113.831L268.012 113.823Z" fill="black"/>
<path d="M258.439 115.053C258.439 115.864 257.781 116.53 256.961 116.53C256.141 116.53 255.484 115.872 255.484 115.053C255.484 114.233 256.141 113.575 256.961 113.575C257.781 113.575 258.439 114.233 258.439 115.053Z" fill="black"/>
<path d="M247.234 115.053C247.234 115.864 246.576 116.53 245.756 116.53C244.937 116.53 244.279 115.872 244.279 115.053C244.279 114.233 244.937 113.575 245.756 113.575C246.576 113.575 247.234 114.233 247.234 115.053Z" fill="black"/>
<path d="M250.437 116.53C250.078 117.973 249.6 119.39 249.13 120.808C248.874 121.594 247.968 123.097 248.506 123.925C249.36 125.223 252.759 125.035 253.306 123.567C253.485 123.08 252.896 122.789 252.52 122.96C251.743 123.31 251.111 123.567 250.214 123.404C249.284 123.233 249.523 122.849 249.694 121.995C250.052 120.21 250.548 118.451 250.846 116.649C250.889 116.384 250.505 116.265 250.437 116.538V116.53Z" fill="black"/>
<path d="M244.911 128.077C245.099 128.008 252.213 130.826 257.363 127.923C257.363 127.923 256.79 132.919 251.359 132.987C245.927 133.055 244.911 128.077 244.911 128.077Z" fill="white"/>
<path d="M241.179 111.978C241.179 111.978 243.467 111.081 246.269 112.644C246.986 113.045 248.13 113.062 248.455 110.654C248.626 109.399 246.038 109.971 245.867 109.877C245.705 109.774 243.245 109.911 243.245 109.911L241.17 111.978H241.179Z" fill="#A5685C"/>
<path d="M254.45 110.961C254.45 110.961 255.048 111.952 256.167 111.73C257.285 111.507 259.446 112.08 260.189 113.173C260.932 114.266 262.076 111.883 262.076 111.883C262.076 111.883 259.89 110.192 259.737 110.09C259.591 109.987 257.106 109.62 257.106 109.62L254.45 110.961Z" fill="#A5685C"/>
<path d="M258.789 109.245C257.379 108.929 255.936 109.177 254.672 109.834C253.801 110.287 254.57 111.576 255.441 111.141C257.439 110.133 259.933 110.466 261.624 111.978C261.846 112.174 262.256 111.909 262.059 111.645C261.163 110.466 260.3 109.586 258.797 109.245H258.789Z" fill="black"/>
<path d="M248.131 109.834C246.867 109.177 245.424 108.929 244.015 109.245C242.503 109.586 241.649 110.466 240.752 111.645C240.556 111.909 240.966 112.174 241.188 111.978C242.887 110.475 245.373 110.133 247.371 111.141C248.242 111.576 249.002 110.287 248.14 109.834H248.131Z" fill="black"/>
<path d="M345.04 318.271H40.6776C39.2812 318.271 38.0536 316.93 37.3948 314.948C37.0682 315.924 36.8767 317.058 36.8767 318.271C36.8767 321.928 38.5829 324.915 40.672 324.915H345.04C347.129 324.915 348.835 321.928 348.835 318.271C348.835 317.058 348.644 315.924 348.317 314.948C347.658 316.93 346.436 318.271 345.034 318.271H345.04Z" fill="#268594"/>
<path d="M170.715 319.743C170.715 319.743 159.168 310.271 159.351 307.266C159.534 304.26 162.662 307.143 162.662 307.143C162.662 307.143 155.612 296.478 157.146 291.267C158.679 286.056 164.867 295.365 167.628 304.68C167.628 304.68 166.434 298.398 168.856 297.943C172.473 297.271 174.006 319.736 174.006 319.736H170.715V319.743Z" fill="#268594"/>
<path d="M158.758 290.764L158.32 290.98L171.889 318.362L172.326 318.145L158.758 290.764Z" fill="#37BDB4"/>
<path d="M183.315 319.744C183.315 319.744 194.863 311.656 194.68 309.092C194.496 306.527 191.369 308.99 191.369 308.99C191.369 308.99 198.418 299.885 196.885 295.434C195.351 290.983 189.164 298.935 186.402 306.887C186.402 306.887 187.596 301.52 185.174 301.14C181.558 300.563 177.738 319.751 177.738 319.751H183.315V319.744Z" fill="#268594"/>
<path d="M195.275 294.971L181.711 318.352L182.134 318.597L195.698 295.216L195.275 294.971Z" fill="#37BDB4"/>
<path d="M174.006 319.744C174.006 319.744 168.51 302.687 170.308 298.989C172.106 295.291 174.474 302.157 174.474 302.157C174.474 302.157 174.963 285.894 178.477 283.275C181.992 280.656 180.357 302.239 180.357 302.239C180.357 302.239 182.643 299.05 185.099 299.376C187.555 299.701 178.315 319.744 178.315 319.744H174.006Z" fill="#37BDB4"/>
<path d="M178.816 286.605L175.783 318.819L176.269 318.865L179.303 286.651L178.816 286.605Z" fill="#268594"/>
<path d="M34.9985 319.74C34.9985 319.74 11.5368 300.484 11.9056 294.384C12.2744 288.285 18.6331 294.135 18.6331 294.135C18.6331 294.135 4.30099 272.457 7.42057 261.863C10.5402 251.268 23.1182 270.195 28.7294 289.132C28.7294 289.132 26.2975 276.364 31.2211 275.447C38.5765 274.072 41.6862 319.74 41.6862 319.74H34.9985Z" fill="#268594"/>
<path d="M10.698 260.846L9.80493 261.288L37.3791 316.933L38.2722 316.491L10.698 260.846Z" fill="#37BDB4"/>
<path d="M60.5931 319.741C60.5931 319.741 84.0548 303.306 83.686 298.094C83.3172 292.881 76.9585 297.884 76.9585 297.884C76.9585 297.884 91.2906 279.376 88.171 270.336C85.0514 261.296 72.4734 277.453 66.8622 293.619C66.8622 293.619 69.294 282.715 64.3705 281.938C57.025 280.771 49.251 319.751 49.251 319.751H60.5931V319.741Z" fill="#268594"/>
<path d="M84.9015 269.413L57.3386 316.923L58.2007 317.423L85.7636 269.913L84.9015 269.413Z" fill="#37BDB4"/>
<path d="M41.6866 319.741C41.6866 319.741 30.5139 285.076 34.1716 277.561C37.8294 270.047 42.6434 284 42.6434 284C42.6434 284 43.64 250.94 50.7861 245.628C57.9323 240.316 54.6034 284.169 54.6034 284.169C54.6034 284.169 59.2579 277.691 64.2412 278.359C69.2246 279.027 50.4573 319.751 50.4573 319.751H41.6965L41.6866 319.741Z" fill="#37BDB4"/>
<path d="M51.4665 252.387L45.3008 317.857L46.2931 317.951L52.4588 252.48L51.4665 252.387Z" fill="#268594"/>
<path d="M335.276 275.429H293.446C286.011 275.429 279.991 281.459 279.991 288.884V319.731H348.741V288.884C348.741 281.449 342.712 275.429 335.286 275.429H335.276Z" fill="#268594"/>
<path d="M290.207 292.062H269.785C262.35 292.062 256.33 298.092 256.33 305.518V319.73H303.672V305.518C303.672 298.082 297.642 292.062 290.217 292.062H290.207Z" fill="#37BDB4"/>
<path d="M267.542 309.495C266.316 309.495 265.11 308.538 264.482 307.94C264.123 308.328 263.735 308.508 263.316 308.438C262.05 308.269 261.313 305.946 261.113 305.239L262.07 304.97C262.389 306.096 263.027 307.392 263.446 307.451C263.595 307.451 263.755 307.332 263.994 306.913L264.343 306.335L264.791 306.843C265.289 307.402 266.814 308.787 267.881 308.448C268.658 308.199 269.196 307.033 269.426 305.049L270.412 305.169C270.123 307.601 269.376 309.026 268.18 309.395C267.961 309.465 267.741 309.495 267.522 309.495H267.542Z" fill="#268594"/>
<path d="M289.808 302.738C288.582 302.738 287.376 301.781 286.748 301.183C286.389 301.572 286.001 301.741 285.582 301.681C284.316 301.512 283.579 299.19 283.38 298.482L284.336 298.213C284.655 299.339 285.293 300.635 285.712 300.695C285.791 300.695 286.011 300.575 286.26 300.156L286.609 299.578L287.057 300.087C287.556 300.645 289.08 302.03 290.147 301.691C290.924 301.442 291.463 300.276 291.692 298.293L292.678 298.412C292.389 300.844 291.642 302.269 290.446 302.638C290.227 302.708 290.007 302.738 289.788 302.738H289.808Z" fill="#268594"/>
<path d="M284.496 316.074C283.27 316.074 282.064 315.117 281.436 314.519C281.077 314.908 280.688 315.067 280.27 315.017C279.004 314.848 278.266 312.526 278.067 311.818L279.024 311.549C279.343 312.675 279.981 313.971 280.399 314.031C280.479 314.05 280.698 313.911 280.948 313.492L281.296 312.914L281.745 313.423C282.243 313.981 283.768 315.366 284.835 315.027C285.612 314.778 286.15 313.612 286.379 311.629L287.366 311.748C287.077 314.18 286.33 315.605 285.134 315.974C284.914 316.044 284.695 316.074 284.476 316.074H284.496Z" fill="#268594"/>
<path d="M314.765 296.319C313.539 296.319 312.333 295.362 311.705 294.764C311.346 295.153 310.957 295.322 310.539 295.262C309.273 295.093 308.536 292.771 308.336 292.063L309.293 291.794C309.612 292.92 310.25 294.216 310.668 294.276C310.748 294.286 310.967 294.156 311.217 293.737L311.565 293.159L312.014 293.668C312.512 294.226 314.037 295.611 315.104 295.272C315.881 295.023 316.419 293.857 316.648 291.874L317.635 291.993C317.346 294.425 316.599 295.85 315.403 296.219C315.183 296.289 314.964 296.319 314.745 296.319H314.765Z" fill="#37BDB4"/>
<path d="M297.303 287.618C296.077 287.618 294.871 286.661 294.243 286.063C293.884 286.452 293.496 286.621 293.077 286.561C291.811 286.392 291.074 284.07 290.875 283.362L291.831 283.093C292.15 284.219 292.788 285.515 293.207 285.574C293.286 285.594 293.506 285.455 293.755 285.036L294.104 284.458L294.552 284.967C295.051 285.525 296.575 286.91 297.642 286.571C298.419 286.322 298.958 285.156 299.187 283.172L300.173 283.292C299.884 285.724 299.137 287.149 297.941 287.518C297.722 287.588 297.502 287.618 297.283 287.618H297.303Z" fill="#37BDB4"/>
<path d="M337.03 289.561C335.804 289.561 334.598 288.604 333.97 288.006C333.612 288.395 333.223 288.564 332.804 288.505C331.539 288.335 330.801 286.013 330.602 285.305L331.558 285.036C331.877 286.162 332.515 287.458 332.934 287.518C333.024 287.548 333.233 287.398 333.482 286.98L333.831 286.402L334.279 286.91C334.778 287.468 336.303 288.853 337.369 288.515C338.146 288.265 338.685 287.099 338.914 285.116L339.901 285.235C339.612 287.667 338.864 289.093 337.668 289.461C337.449 289.531 337.23 289.561 337.01 289.561H337.03Z" fill="#37BDB4"/>
<path d="M331.17 310.292C329.944 310.292 328.738 309.336 328.11 308.738C327.751 309.126 327.363 309.286 326.944 309.236C325.678 309.067 324.941 306.744 324.741 306.037L325.698 305.768C326.017 306.894 326.655 308.189 327.074 308.249C327.153 308.269 327.373 308.13 327.622 307.711L327.971 307.133L328.419 307.641C328.918 308.199 330.442 309.595 331.509 309.246C332.286 308.997 332.824 307.831 333.054 305.847L334.04 305.967C333.751 308.399 333.004 309.824 331.808 310.193C331.589 310.263 331.369 310.292 331.15 310.292H331.17Z" fill="#37BDB4"/>
<path d="M75.4189 184.387H24.6281C22.5867 184.387 20.9302 186.043 20.9302 188.085V225.561C20.9302 227.602 22.5867 229.259 24.6281 229.259H75.4189C77.4602 229.259 79.1167 227.602 79.1167 225.561V188.083C79.1167 186.041 77.4602 184.385 75.4189 184.385V184.387Z" fill="#6C6C6C"/>
<path d="M44.7195 193.707H94.1362C96.1242 193.707 97.7357 195.319 97.7357 197.307V233.768C97.7357 235.756 96.1242 237.368 94.1362 237.368H44.7195C42.7315 237.368 41.12 235.756 41.12 233.768V197.307C41.12 195.319 42.7315 193.707 44.7195 193.707Z" fill="#9CC2FF"/>
<path d="M91.2832 202.6L102.467 191.417H131.679C132.085 191.417 132.415 191.086 132.415 190.681C132.415 190.275 132.085 189.944 131.679 189.944H101.856L90.2416 201.559C89.953 201.847 89.953 202.312 90.2416 202.6C90.5302 202.889 90.9945 202.889 91.2832 202.6Z" fill="#2C2858"/>
<path d="M112.751 187.735H131.821C132.227 187.735 132.557 187.405 132.557 186.999C132.557 186.593 132.227 186.263 131.821 186.263H112.751C112.345 186.263 112.014 186.593 112.014 186.999C112.014 187.405 112.345 187.735 112.751 187.735Z" fill="#2C2858"/>
<path d="M99.2098 247.645L87.6415 247.348L77.7172 236.899C77.4369 236.604 77.4495 236.138 77.7444 235.857C77.8929 235.717 78.0811 235.65 78.2694 235.654C78.4576 235.659 78.6438 235.736 78.7839 235.882L88.2878 245.888L99.2454 246.171C99.6511 246.181 99.9732 246.52 99.9628 246.926C99.9523 247.332 99.6135 247.654 99.2077 247.643L99.2098 247.645Z" fill="#2C2858"/>
<path d="M92.214 216.11C92.214 220.231 90.9151 224.044 88.7169 227.181L88.6897 227.162C90.9005 224.021 92.214 220.21 92.214 216.112V216.11Z" fill="#AA62CC"/>
<path d="M70.0981 196.996C69.5502 197.076 69.0043 197.172 68.4667 197.299C69.0022 197.174 69.5481 197.076 70.0981 196.996Z" fill="#AA62CC"/>
<path d="M79.0957 234.386C79.2002 234.351 79.309 234.326 79.4136 234.288C78.8991 234.472 78.3762 234.635 77.8407 234.777C77.9118 234.759 77.983 234.731 78.0541 234.711C78.4055 234.612 78.7526 234.506 79.0957 234.386Z" fill="#AA62CC"/>
<path d="M80.8235 233.699C81.0787 233.584 81.338 233.484 81.5869 233.358C81.0431 233.632 80.4868 233.883 79.9158 234.107C80.0015 234.074 80.081 234.03 80.1668 233.994C80.3885 233.902 80.606 233.8 80.8235 233.699Z" fill="#AA62CC"/>
<path d="M65.7625 198.145C65.1308 198.396 64.5117 198.674 63.9073 198.992C64.5075 198.676 65.1266 198.398 65.7625 198.145Z" fill="#AA62CC"/>
<path d="M59.4394 216.109H53.5433C53.5433 208.717 57.695 202.298 63.7898 199.046L66.561 204.25C62.3236 206.511 59.4394 210.972 59.4394 216.109Z" fill="#0E6A41"/>
<path d="M72.8798 196.774C83.5592 196.774 92.214 205.431 92.214 216.109C92.214 205.502 83.486 196.774 72.8798 196.774Z" fill="#AA62CC"/>
<path d="M67.8667 197.454C67.3292 197.598 66.7979 197.766 66.275 197.956C66.7958 197.766 67.325 197.598 67.8667 197.454Z" fill="#AA62CC"/>
<path d="M72.8796 196.774C72.1371 196.774 71.4009 196.827 70.6668 196.91C71.3946 196.827 72.1309 196.774 72.8796 196.774Z" fill="#AA62CC"/>
<path d="M81.8793 233.216C82.5297 232.873 83.1614 232.496 83.77 232.082C83.1635 232.496 82.5318 232.871 81.8793 233.216Z" fill="#AA62CC"/>
<path d="M83.8857 231.996C84.4212 231.624 84.9378 231.223 85.4355 230.796C84.9399 231.22 84.4232 231.622 83.8857 231.996Z" fill="#AA62CC"/>
<path d="M72.8796 235.445C62.2003 235.445 53.5455 226.789 53.5455 216.111C53.5455 226.717 62.2735 235.445 72.8796 235.445Z" fill="#AA62CC"/>
<path d="M75.0825 235.309C74.3588 235.39 73.6268 235.442 72.8801 235.442C73.6143 235.442 74.3358 235.392 75.0491 235.311C75.0595 235.311 75.07 235.311 75.0804 235.311L75.0825 235.309Z" fill="#AA62CC"/>
<path d="M77.1382 234.95C77.18 234.941 77.2218 234.937 77.2637 234.927C76.7303 235.05 76.1886 235.146 75.6407 235.226C75.6867 235.22 75.7306 235.207 75.7766 235.201C76.2346 235.13 76.6906 235.052 77.1361 234.95H77.1382Z" fill="#AA62CC"/>
<path d="M87.4682 228.773C87.8238 228.363 88.1626 227.935 88.4868 227.491C88.1647 227.933 87.828 228.361 87.4682 228.773Z" fill="#AA62CC"/>
<path d="M85.9224 230.355C86.2884 230.02 86.6439 229.671 86.9849 229.305C86.6439 229.669 86.2884 230.018 85.9224 230.355Z" fill="#AA62CC"/>
<path d="M66.2744 197.957C66.1029 198.02 65.9293 198.078 65.762 198.145C65.9314 198.078 66.1029 198.02 66.2744 197.957Z" fill="#D48FFF"/>
<path d="M68.4668 197.3C68.266 197.348 68.0673 197.4 67.8665 197.455C68.0652 197.4 68.2639 197.348 68.4668 197.3Z" fill="#D48FFF"/>
<path d="M63.7898 199.044C63.8274 199.024 63.8671 199.011 63.9048 198.992C63.8671 199.011 63.8274 199.028 63.7898 199.047V199.044Z" fill="#D48FFF"/>
<path d="M70.667 196.911C70.4746 196.932 70.2884 196.97 70.0981 196.999C70.2884 196.972 70.4767 196.934 70.667 196.911Z" fill="#D48FFF"/>
<path d="M79.0957 234.387C78.7527 234.506 78.4055 234.613 78.0541 234.711C78.4055 234.613 78.7506 234.504 79.0957 234.387Z" fill="#D48FFF"/>
<path d="M72.8799 235.445C73.6099 235.445 74.3335 235.393 75.0488 235.313C74.3356 235.395 73.614 235.445 72.8799 235.445Z" fill="#D48FFF"/>
<path d="M83.8894 223.804C91.9565 212.449 78.8363 197.612 66.5632 204.25L63.7919 199.046C81.4444 189.528 100.335 210.903 88.6895 227.161L83.8873 223.804H83.8894Z" fill="#3F964F"/>
<path d="M80.8235 233.698C80.6039 233.799 80.3884 233.901 80.1667 233.993C80.3884 233.903 80.606 233.797 80.8235 233.698Z" fill="#D48FFF"/>
<path d="M77.1379 234.949C76.6904 235.052 76.2365 235.129 75.7784 235.2C76.2365 235.131 76.6904 235.052 77.1379 234.949Z" fill="#D48FFF"/>
<path d="M86.9851 229.305C87.1483 229.129 87.3114 228.953 87.4683 228.773C87.3114 228.955 87.1503 229.129 86.9851 229.305Z" fill="#32186C"/>
<path d="M85.4353 230.796C85.6026 230.654 85.7616 230.501 85.9226 230.353C85.7595 230.501 85.6026 230.654 85.4353 230.796Z" fill="#32186C"/>
<path d="M83.7701 232.082C83.8099 232.055 83.8454 232.023 83.8831 231.996C83.8433 232.023 83.8078 232.055 83.7701 232.082Z" fill="#32186C"/>
<path d="M75.0822 235.309C75.2704 235.288 75.4545 235.251 75.6406 235.224C75.4545 235.251 75.2704 235.286 75.0822 235.309Z" fill="#32186C"/>
<path d="M77.2636 234.927C77.4581 234.883 77.6484 234.831 77.8408 234.778C77.6484 234.829 77.4581 234.881 77.2636 234.927Z" fill="#32186C"/>
<path d="M88.7273 227.186C88.652 227.293 88.5621 227.385 88.4847 227.491C88.5621 227.387 88.6436 227.286 88.7168 227.18L88.7252 227.186H88.7273Z" fill="#32186C"/>
<path d="M88.6891 227.161L88.7163 227.18C88.641 227.287 88.5594 227.387 88.4842 227.492C88.16 227.935 87.8232 228.364 87.4656 228.774C87.3087 228.954 87.1456 229.129 86.9824 229.305C86.6415 229.669 86.2859 230.018 85.9199 230.355C85.7589 230.503 85.5999 230.656 85.4326 230.798C84.9348 231.225 84.4182 231.627 83.8828 231.999C83.843 232.026 83.8075 232.057 83.7698 232.085C83.1612 232.499 82.5296 232.875 81.8791 233.218C81.7829 233.268 81.6825 233.31 81.5863 233.358C81.3374 233.484 81.0759 233.586 80.8229 233.699C83.9874 232.254 86.7043 229.983 88.6891 227.161Z" fill="#32186C"/>
<path d="M75.7765 235.2C75.7305 235.207 75.6865 235.219 75.6405 235.225C75.4544 235.253 75.2703 235.29 75.0821 235.311C75.0716 235.311 75.0612 235.311 75.0507 235.311C75.2954 235.284 75.5359 235.236 75.7786 235.198L75.7765 235.2Z" fill="#32186C"/>
<path d="M80.1646 233.992C80.0788 234.028 79.9993 234.072 79.9136 234.105C79.7483 234.17 79.5789 234.229 79.4116 234.289C79.307 234.327 79.1983 234.352 79.0937 234.387C79.4534 234.264 79.8132 234.137 80.1646 233.992Z" fill="#32186C"/>
<path d="M78.054 234.711C77.9828 234.732 77.9117 234.759 77.8406 234.778C77.6482 234.828 77.4579 234.88 77.2633 234.926C77.2215 234.937 77.1797 234.941 77.1379 234.949C77.4474 234.878 77.7507 234.797 78.054 234.711Z" fill="#32186C"/>
<path d="M53.5455 216.11H59.4416C59.1738 229.076 76.8473 234.436 83.8895 223.805L88.6917 227.162C78.1461 242.558 53.4409 234.75 53.5455 216.112V216.11Z" fill="#0C5C38"/>
<path d="M299.682 94.6846H363.105C364.584 94.6846 365.778 95.8859 365.778 97.3583V139.384C365.778 140.864 364.577 142.058 363.105 142.058H299.682C298.202 142.058 297.008 140.856 297.008 139.384V97.3583C297.008 95.8786 298.209 94.6846 299.682 94.6846Z" fill="url(#paint18_linear_5283_1957)"/>
<path d="M350.022 97.4022C348.63 97.0652 347.407 98.2885 347.751 99.6804C347.912 100.332 348.447 100.867 349.099 101.021C350.483 101.351 351.699 100.127 351.362 98.75C351.208 98.0981 350.674 97.5633 350.022 97.4095V97.4022Z" fill="white"/>
<path d="M355.955 97.4022C354.571 97.0652 353.347 98.2885 353.684 99.6804C353.846 100.332 354.38 100.867 355.032 101.021C356.417 101.351 357.633 100.127 357.296 98.7427C357.135 98.0908 356.607 97.556 355.955 97.4022Z" fill="white"/>
<path d="M363.236 99.673C363.566 98.2885 362.357 97.0725 360.973 97.4022C360.321 97.556 359.786 98.0908 359.625 98.7427C359.281 100.135 360.504 101.365 361.896 101.021C362.548 100.86 363.082 100.325 363.236 99.673Z" fill="white"/>
<path d="M361.61 103.027H301.169C300.436 103.027 299.843 103.621 299.843 104.353V137.72C299.843 138.452 300.436 139.046 301.169 139.046H361.61C362.342 139.046 362.936 138.452 362.936 137.72V104.353C362.936 103.621 362.342 103.027 361.61 103.027Z" fill="white"/>
<path d="M327.159 108.911H306.883V111.695H327.159V108.911Z" fill="url(#paint19_linear_5283_1957)"/>
<path d="M331.789 114.609H306.883V117.393H331.789V114.609Z" fill="url(#paint20_linear_5283_1957)"/>
<path d="M355.897 120.309H306.883V123.092H355.897V120.309Z" fill="url(#paint21_linear_5283_1957)"/>
<path d="M355.897 126.015H306.883V128.798H355.897V126.015Z" fill="url(#paint22_linear_5283_1957)"/>
<path d="M355.897 131.714H306.883V134.497H355.897V131.714Z" fill="url(#paint23_linear_5283_1957)"/>
<defs>
<linearGradient id="paint0_linear_5283_1957" x1="203.384" y1="136.377" x2="236.872" y2="303.834" gradientUnits="userSpaceOnUse">
<stop stop-color="#A06AFF"/>
<stop offset="1" stop-color="#7A30FE"/>
</linearGradient>
<linearGradient id="paint1_linear_5283_1957" x1="264.79" y1="145.951" x2="282.457" y2="227.026" gradientUnits="userSpaceOnUse">
<stop stop-color="#A06AFF"/>
<stop offset="1" stop-color="#7A30FE"/>
</linearGradient>
<linearGradient id="paint2_linear_5283_1957" x1="202.129" y1="148.465" x2="216.525" y2="212.355" gradientUnits="userSpaceOnUse">
<stop stop-color="#A06AFF"/>
<stop offset="1" stop-color="#7A30FE"/>
</linearGradient>
<linearGradient id="paint3_linear_5283_1957" x1="226.493" y1="156.195" x2="240.823" y2="154.408" gradientUnits="userSpaceOnUse">
<stop stop-color="#432B99"/>
<stop offset="1" stop-color="#090051"/>
</linearGradient>
<linearGradient id="paint4_linear_5283_1957" x1="53.8048" y1="40.1034" x2="135.42" y2="375.13" gradientUnits="userSpaceOnUse">
<stop stop-color="#A06AFF"/>
<stop offset="1" stop-color="#7A30FE"/>
</linearGradient>
<linearGradient id="paint5_linear_5283_1957" x1="102.979" y1="256.266" x2="125.384" y2="197.414" gradientUnits="userSpaceOnUse">
<stop stop-color="#7BC6FF" stop-opacity="0"/>
<stop offset="1" stop-color="#7691FF"/>
</linearGradient>
<linearGradient id="paint6_linear_5283_1957" x1="149.322" y1="121.448" x2="169.764" y2="102.063" gradientUnits="userSpaceOnUse">
<stop stop-color="#7BC6FF" stop-opacity="0"/>
<stop offset="1" stop-color="#7691FF"/>
</linearGradient>
<linearGradient id="paint7_linear_5283_1957" x1="178.371" y1="128.518" x2="193.884" y2="59.6357" gradientUnits="userSpaceOnUse">
<stop stop-color="#F9F9F9"/>
<stop offset="1" stop-color="#B7D0EE"/>
</linearGradient>
<linearGradient id="paint8_linear_5283_1957" x1="163.716" y1="105.377" x2="179.538" y2="86.2903" gradientUnits="userSpaceOnUse">
<stop stop-color="white" stop-opacity="0"/>
<stop offset="1" stop-color="white"/>
</linearGradient>
<linearGradient id="paint9_linear_5283_1957" x1="169.895" y1="94.401" x2="169.895" y2="109.532" gradientUnits="userSpaceOnUse">
<stop stop-color="#CB2371"/>
<stop offset="1" stop-color="#57236B"/>
</linearGradient>
<linearGradient id="paint10_linear_5283_1957" x1="196.157" y1="88.6081" x2="198.481" y2="104.746" gradientUnits="userSpaceOnUse">
<stop stop-color="#7BC6FF"/>
<stop offset="1" stop-color="#7691FF"/>
</linearGradient>
<linearGradient id="paint11_linear_5283_1957" x1="192.224" y1="89.1728" x2="194.553" y2="105.311" gradientUnits="userSpaceOnUse">
<stop stop-color="#7BC6FF"/>
<stop offset="1" stop-color="#7691FF"/>
</linearGradient>
<linearGradient id="paint12_linear_5283_1957" x1="193.845" y1="88.9399" x2="196.174" y2="105.078" gradientUnits="userSpaceOnUse">
<stop stop-color="#7BC6FF"/>
<stop offset="1" stop-color="#7691FF"/>
</linearGradient>
<linearGradient id="paint13_linear_5283_1957" x1="54.4156" y1="84.6872" x2="73.9668" y2="63.8802" gradientUnits="userSpaceOnUse">
<stop offset="0.31" stop-color="#DBF0FF"/>
<stop offset="0.37" stop-color="#DBF0FF" stop-opacity="0.96"/>
<stop offset="0.47" stop-color="#DBF0FF" stop-opacity="0.85"/>
<stop offset="0.6" stop-color="#DBF0FF" stop-opacity="0.67"/>
<stop offset="0.76" stop-color="#DBF0FF" stop-opacity="0.43"/>
<stop offset="0.94" stop-color="#DBF0FF" stop-opacity="0.12"/>
<stop offset="1" stop-color="#DBF0FF" stop-opacity="0"/>
</linearGradient>
<linearGradient id="paint14_linear_5283_1957" x1="79.5875" y1="56.6604" x2="58.0116" y2="76.9086" gradientUnits="userSpaceOnUse">
<stop offset="0.28" stop-color="#7BC6FF"/>
<stop offset="0.91" stop-color="#7691FF"/>
</linearGradient>
<linearGradient id="paint15_linear_5283_1957" x1="134.39" y1="174.125" x2="183.644" y2="126.155" gradientUnits="userSpaceOnUse">
<stop stop-color="#DBF0FF"/>
<stop offset="1" stop-color="#DBF0FF" stop-opacity="0"/>
</linearGradient>
<linearGradient id="paint16_linear_5283_1957" x1="168.513" y1="142.415" x2="145.018" y2="165.916" gradientUnits="userSpaceOnUse">
<stop stop-color="#7BC6FF"/>
<stop offset="0.78" stop-color="#7691FF"/>
</linearGradient>
<linearGradient id="paint17_linear_5283_1957" x1="173.062" y1="137.186" x2="146.025" y2="164.228" gradientUnits="userSpaceOnUse">
<stop offset="0.03" stop-color="#CB2371" stop-opacity="0"/>
<stop offset="0.19" stop-color="#B2236F" stop-opacity="0.21"/>
<stop offset="0.56" stop-color="#80236D" stop-opacity="0.64"/>
<stop offset="0.84" stop-color="#62236B" stop-opacity="0.9"/>
<stop offset="1" stop-color="#57236B"/>
</linearGradient>
<linearGradient id="paint18_linear_5283_1957" x1="287.648" y1="90.8049" x2="294.252" y2="168.008" gradientUnits="userSpaceOnUse">
<stop stop-color="#A06AFF"/>
<stop offset="1" stop-color="#7A30FE"/>
</linearGradient>
<linearGradient id="paint19_linear_5283_1957" x1="304.123" y1="108.683" x2="304.201" y2="113.251" gradientUnits="userSpaceOnUse">
<stop stop-color="#A06AFF"/>
<stop offset="1" stop-color="#7A30FE"/>
</linearGradient>
<linearGradient id="paint20_linear_5283_1957" x1="303.493" y1="114.381" x2="303.556" y2="118.95" gradientUnits="userSpaceOnUse">
<stop stop-color="#A06AFF"/>
<stop offset="1" stop-color="#7A30FE"/>
</linearGradient>
<linearGradient id="paint21_linear_5283_1957" x1="300.211" y1="120.081" x2="300.244" y2="124.65" gradientUnits="userSpaceOnUse">
<stop stop-color="#A06AFF"/>
<stop offset="1" stop-color="#7A30FE"/>
</linearGradient>
<linearGradient id="paint22_linear_5283_1957" x1="300.211" y1="125.787" x2="300.244" y2="130.356" gradientUnits="userSpaceOnUse">
<stop stop-color="#A06AFF"/>
<stop offset="1" stop-color="#7A30FE"/>
</linearGradient>
<linearGradient id="paint23_linear_5283_1957" x1="300.211" y1="131.486" x2="300.244" y2="136.055" gradientUnits="userSpaceOnUse">
<stop stop-color="#A06AFF"/>
<stop offset="1" stop-color="#7A30FE"/>
</linearGradient>
</defs>
</svg>
